HIERARCHY
ROOT Hips
{
  OFFSET -32.5998 29.0326 120.673
  CHANNELS 6 Xposition Yposition Zposition Zrotation Xrotation Yrotation
  JOINT LeftUpLeg
  {
    OFFSET 8.64259 1.95398 -2.38835
    CHANNELS 3 Zrotation Xrotation Yrotation
    JOINT LeftLeg
    {
      OFFSET 43.7702 0 0
      CHANNELS 3 Zrotation Xrotation Yrotation
      JOINT LeftFoot
      {
        OFFSET 40.6238 0 0
        CHANNELS 3 Zrotation Xrotation Yrotation
        JOINT LeftToeBase
        {
          OFFSET 12.7242 0 0
          CHANNELS 3 Zrotation Xrotation Yrotation
          End Site
          {
            OFFSET 0 0 0
          }
        }
      }
    }
  }
  JOINT RightUpLeg
  {
    OFFSET -8.2249 1.95398 -2.59336
    CHANNELS 3 Zrotation Xrotation Yrotation
    JOINT RightLeg
    {
      OFFSET 43.5653 0 0
      CHANNELS 3 Zrotation Xrotation Yrotation
      JOINT RightFoot
      {
        OFFSET 40.6238 0 0
        CHANNELS 3 Zrotation Xrotation Yrotation
        JOINT RightToeBase
        {
          OFFSET 12.7242 0 0
          CHANNELS 3 Zrotation Xrotation Yrotation
          End Site
          {
            OFFSET 0 0 0
          }
        }
      }
    }
  }
  JOINT Spine
  {
    OFFSET 0.165834 0.87714 6.61349
    CHANNELS 3 Zrotation Xrotation Yrotation
    JOINT Spine1
    {
      OFFSET 7.38963 1.71661e-005 0
      CHANNELS 3 Zrotation Xrotation Yrotation
      JOINT Spine2
      {
        OFFSET 11.9445 1.14441e-005 0
        CHANNELS 3 Zrotation Xrotation Yrotation
        JOINT Spine3
        {
          OFFSET 14.7254 4.19617e-005 0
          CHANNELS 3 Zrotation Xrotation Yrotation
          JOINT Spine4
          {
            OFFSET 10.9679 0 0
            CHANNELS 3 Zrotation Xrotation Yrotation
            JOINT RightShoulder
            {
              OFFSET 2.46616 -1.6653 3.69651
              CHANNELS 3 Zrotation Xrotation Yrotation
              JOINT RightArm
              {
                OFFSET 13.0012 0 0
                CHANNELS 3 Zrotation Xrotation Yrotation
                JOINT RightForeArm
                {
                  OFFSET 28.7848 1.62311e-005 0
                  CHANNELS 3 Zrotation Xrotation Yrotation
                  JOINT RightHand
                  {
                    OFFSET 26.5688 1.62095e-005 0
                    CHANNELS 3 Zrotation Xrotation Yrotation
                    End Site
                    {
                      OFFSET 0 0 0
                    }
                  }
                }
              }
            }
            JOINT LeftShoulder
            {
              OFFSET 2.38034 -1.29275 -3.7523
              CHANNELS 3 Zrotation Xrotation Yrotation
              JOINT LeftArm
              {
                OFFSET 16.3182 6.07031e-005 0
                CHANNELS 3 Zrotation Xrotation Yrotation
                JOINT LeftForeArm
                {
                  OFFSET 27.0901 0 0
                  CHANNELS 3 Zrotation Xrotation Yrotation
                  JOINT LeftHand
                  {
                    OFFSET 24.5451 1.51738e-005 0
                    CHANNELS 3 Zrotation Xrotation Yrotation
                    End Site
                    {
                      OFFSET 0 0 0
                    }
                  }
                }
              }
            }
            JOINT Neck
            {
              OFFSET 5.0226 -0.0266342 0
              CHANNELS 3 Zrotation Xrotation Yrotation
              JOINT Head
              {
                OFFSET 6.69364 2.86102e-005 0
                CHANNELS 3 Zrotation Xrotation Yrotation
                End Site
                {
                  OFFSET 0 0 0
                }
              }
            }
          }
        }
      }
    }
  }
}
MOTION
Frames:	14
Frame Time:	0.0416667
23.9153 96.8575 -76.0518 78.2341 -88.5529 84.7821 -176.684 28.4511 86.2929 -17.2625 10.8031 -1.7694 63.8913 3.11851 1.06992 17.4525 -5.05464 0.404013 166.484 -22.9234 80.1512 -32.6468 -29.3183 -5.20633 60.9386 0.207848 -0.564169 25.0443 -0.611056 8.27119 2.69902 7.44698 -90.2622 12.0112 5.24268 -1.0919 0.350206 5.18954 -1.32218 -22.2698 5.32771 0.538776 -2.25711 5.32771 0.538771 92.8096 -18.658 -105.27 31.5432 9.20186 -16.5376 -19.7756 13.4553 -127.884 -14.262 -0.616757 -0.167599 -85.5383 -33.2002 82.6148 -39.4277 30.1251 50.9766 46.1771 -34.3999 -103.126 -2.75262 -0.0721331 -9.90379 20.8917 -15.979 -12.6952 -13.2265 -11.6702 2.62334 
25.418 96.4028 -67.5222 125.385 -88.4132 134.91 -175.544 29.2281 88.8707 -21.2998 9.4803 -2.26303 62.1676 1.01206 1.44705 12.6759 -8.29491 2.15379 168.051 -23.454 82.7408 -38.3015 -19.9664 -4.45584 63.2357 -1.37082 0.496171 26.3287 -0.780656 7.10138 2.31807 7.46183 -91.0694 11.9987 4.1045 -2.57929 0.331341 3.98705 -2.75754 -22.2497 4.68957 -1.22457 -2.23702 4.68957 -1.22457 92.0729 -15.1315 -108.859 34.2805 1.24584 -14.0612 -19.226 13.7603 -123.801 -14.5428 -0.652647 0.0264188 -84.5712 -41.7929 85.7863 -35.6698 25.9215 48.8405 49.1182 -34.2169 -102.67 -2.89137 -0.0679969 -9.33216 22.4487 -11.2113 -5.37438 -15.6802 -9.03456 -0.063829 
27.0249 95.3424 -59.0369 139.772 -87.8099 150.388 -173.054 30.5075 89.2742 -31.2299 8.60857 -4.1235 59.8657 -1.36002 6.57113 10.1602 -3.30495 -7.76794 169.119 -19.9859 83.9381 -49.2801 -11.5328 -4.57983 66.6267 -3.6486 -1.98696 22.9544 0.498611 7.12057 2.36261 7.49965 -90.7681 11.9164 4.33623 -1.99904 0.250811 4.24407 -2.18819 -22.3404 4.73616 -0.600876 -2.32773 4.73615 -0.600879 91.3823 -22.729 -106.762 34.3624 -5.37931 -10.9298 -21.6393 15.9173 -119.12 -12.2825 -0.317111 -2.27928 -85.7018 -38.3516 83.3026 -33.8034 20.5662 41.9452 50.4827 -32.0846 -102.67 -1.24877 -0.131844 -8.52132 21.7161 -12.6432 -12.2461 -14.5657 -8.54974 3.31251 
28.6822 94.0875 -50.9679 133.524 -87.1709 142.588 -170.296 29.8084 86.1127 -43.6522 9.53554 -5.34727 72.1713 7.38507 8.0267 3.31528 -6.75758 -6.60929 170.345 -12.502 83.7861 -63.9855 -3.62586 -5.39542 69.9771 -5.89265 -4.84482 15.5964 2.58443 9.29268 1.91208 7.58847 -90.4851 11.723 3.57537 -1.34366 0.0561616 3.51278 -1.49988 -22.5183 3.81369 -0.205531 -2.50563 3.81368 -0.205536 90.5512 -25.4784 -107.454 35.9033 -11.1655 -6.65509 -28.09 18.287 -111.588 -8.23516 -0.151558 -3.15353 -86.3867 -42.1225 82.8325 -27.7287 13.8914 34.1915 51.8232 -31.2577 -104.796 -1.78115 -0.110832 -8.29755 20.864 -10.6743 -14.004 -13.392 -6.16912 3.76809 
30.5643 92.3282 -43.5754 128.915 -85.0939 132.484 -169.141 24.0718 80.1053 -47.7258 8.95342 -5.91213 78.4405 12.3376 6.79698 8.63595 -5.96838 -4.60403 171.651 -3.96636 80.5553 -80.2147 1.32696 -6.71772 74.7759 -8.82874 -6.40746 13.6085 3.57091 8.71094 1.25416 8.02512 -89.7524 10.8252 2.61171 0.253948 -0.843036 2.62035 0.138666 -23.3968 2.41455 1.02756 -3.38418 2.41455 1.02756 89.6813 -28.614 -107.945 36.9269 -12.0095 -2.3396 -31.0286 17.0796 -105.72 -9.52816 -0.384338 -0.582437 -86.9633 -46.2942 82.6483 -20.8689 8.38741 20.5027 49.5649 -29.4976 -107.52 -4.20016 -0.0299544 -8.1176 23.3887 -8.18653 -13.88 -13.2634 -3.26023 1.72645 
32.6375 90.7623 -36.6586 122.403 -83.8082 122.22 -168.771 18.0937 76.3434 -48.5758 10.2954 -7.10559 82.9565 16.9023 8.3928 12.0524 -3.24404 -6.73735 176.702 5.76976 79.5158 -94.1901 0.141164 -7.10473 77.5803 -11.1782 -7.40539 14.9297 3.13507 8.51286 0.672274 8.24736 -89.1624 10.3658 1.72283 1.51382 -1.30485 1.78778 1.43653 -23.8379 1.18831 1.96153 -3.82528 1.18832 1.96153 89.3808 -29.6332 -108.131 40.6941 -9.91358 4.76766 -32.3678 16.645 -104.066 -8.10944 -0.199879 -2.45729 -86.9207 -46.5555 82.7638 -17.1788 3.972 4.62521 44.8762 -27.0874 -110.278 -3.93684 -0.0485236 -7.4448 25.9142 -5.61785 -14.2084 -14.1197 -0.31272 1.58667 
34.4069 89.9665 -29.8972 109.208 -84.1081 109.654 -168.767 13.7625 76.9879 -48.5901 10.0115 -7.33645 90.421 21.1583 4.49711 8.42933 -7.01772 -3.01701 -175.935 17.2602 82.6161 -102.892 -0.685421 -6.55115 78.5881 -12.1325 -6.85841 15.172 2.58921 9.7179 0.288934 8.16708 -89.1257 10.5307 0.977123 1.65126 -1.14089 1.04884 1.60666 -23.6686 0.435774 1.86851 -3.65595 0.435776 1.8685 90.4422 -28.4683 -106.46 44.9309 -8.56948 13.1233 -30.437 16.8289 -105.582 -9.10344 -0.268695 -1.86443 -86.9471 -45.6431 82.5611 -15.3414 -1.0858 -10.1332 43.0037 -25.8659 -112.418 -5.01756 0.0125876 -8.93774 25.5756 -1.83742 -13.4384 -12.8804 2.95443 2.18985 
36.0686 89.7035 -22.8831 90.3502 -81.3446 93.8041 -169.109 9.04061 80.2864 -46.3431 11.6438 -6.4353 93.7501 23.1414 2.67502 12.3176 -5.48204 -2.77582 -173.342 28.4138 87.3949 -104.844 2.23225 -5.80618 80.1853 -12.8255 -6.86414 16.8491 2.07292 9.39441 -0.430925 8.00198 -89.3977 10.8707 -0.579495 1.25416 -0.800834 -0.523747 1.27844 -23.3328 -0.929593 1.02206 -3.32015 -0.929588 1.02205 91.6863 -27.8811 -104.135 47.2161 -9.95942 20.8214 -29.8589 18.6794 -106.773 -7.53478 -0.140278 -3.18254 -86.7016 -43.5761 82.5849 -12.9526 -6.44079 -22.839 39.3919 -24.3072 -115.03 -2.95388 -0.0620955 -9.06246 25.7258 1.4909 -13.9559 -14.6043 6.17091 3.83374 
38.5384 90.7311 -15.3627 87.6902 -75.8621 93.7352 -170.37 2.58656 83.6998 -42.6678 15.3744 -4.67125 90.0672 21.4967 3.92014 16.6388 -3.80056 -2.42698 -174.224 35.2835 90.2258 -99.908 6.02513 -5.61918 82.8508 -13.3348 -5.20693 17.8879 2.07644 8.2891 -1.42256 8.02184 -89.7465 10.8407 -2.71531 0.758368 -0.827673 -2.67929 0.877209 -23.3856 -2.81759 -0.0934041 -3.37295 -2.81758 -0.0933952 91.8298 -27.5803 -103.944 47.0949 -10.0044 28.9472 -31.8765 20.8727 -107.49 -6.03569 -0.0547573 -4.56128 -86.6762 -38.5662 81.6497 -11.8549 -11.1737 -29.8416 34.0385 -21.7864 -117.963 -2.22111 -0.104772 -8.02537 25.5025 5.3598 -14.1659 -15.2699 9.76029 5.17137 
41.6901 92.6337 -7.12786 87.9542 -70.3244 96.2879 -171.314 -4.41299 87.1304 -36.9166 19.1272 -2.3988 79.3487 15.0831 7.01787 28.2817 3.07708 -8.20943 -175.289 37.8838 92.1978 -90.1588 6.2227 -5.58433 83.2063 -13.0483 -5.65869 18.0148 2.0799 8.13708 -2.33689 8.23995 -90.2787 10.3979 -4.783 -0.134817 -1.26419 -4.7843 0.0763074 -23.8645 -4.5209 -1.56905 -3.85182 -4.52089 -1.56904 92.8812 -25.1589 -102.566 46.4509 -9.50628 34.6819 -33.8449 22.004 -107.322 -5.41715 -0.0112658 -5.47758 -86.2788 -32.6209 81.0793 -14.5669 -15.1314 -34.0452 35.1384 -22.7555 -119.562 1.01002 -0.0608623 -3.36549 27.4252 8.7974 -12.6833 -16.4303 12.4011 7.28994 
45.2314 94.795 1.66704 87.2273 -66.7048 98.4486 -170.982 -11.1952 92.0152 -28.9057 23.9924 -0.170349 65.9715 5.35026 7.40133 39.3407 7.67792 -12.5942 -176.027 38.5383 94.2781 -76.9257 5.94797 -5.26857 81.4178 -11.0818 -4.13819 16.2048 3.17665 7.07493 -2.94001 8.43335 -90.9451 9.97723 -6.28879 -1.35864 -1.67885 -6.34247 -1.07949 -24.3103 -5.58901 -3.19099 -4.29764 -5.58901 -3.19099 93.5662 -23.0044 -101.805 44.8165 -8.92007 39.2374 -34.7339 22.6985 -107.556 -4.95987 0.0520691 -7.17327 -85.8411 -28.7339 80.9854 -15.6529 -17.4451 -36.042 28.1235 -18.6673 -122.463 1.13756 -0.152761 -6.41751 30.4416 11.7551 -9.96582 -19.3056 13.9653 9.31124 
48.8867 96.2456 10.6337 83.2488 -65.672 97.5384 -169.891 -15.2311 95.7778 -23.2882 26.6383 1.29753 56.4302 -2.09754 4.99701 27.7463 4.30835 -12.2895 -175.282 38.7314 95.5169 -62.0599 0.540316 -5.0159 79.0152 -10.2788 -3.23151 19.6597 1.95221 6.58991 -3.07496 8.35801 -91.6327 10.0823 -6.87103 -2.66696 -1.57254 -6.98169 -2.36078 -24.1957 -5.75181 -4.61275 -4.18308 -5.75181 -4.61276 94.0283 -20.338 -101.701 43.7495 -7.58547 44.1159 -34.4764 22.8467 -108.102 -5.70908 0.0846027 -7.61536 -86.3622 -25.8495 79.2126 -13.5968 -19.7806 -36.1456 24.3788 -16.2224 -123.972 2.3065 -0.161823 -6.11253 31.4245 14.2734 -6.44094 -21.8199 14.6345 10.3641 
52.4575 96.7313 19.2754 77.2773 -65.2941 92.7383 -170.762 -16.8455 95.6552 -22.622 23.1512 2.79837 54.9193 -3.59021 3.6055 13.6883 -3.39395 -5.3738 -174.354 39.0708 94.4056 -47.3928 -8.61546 -4.95877 75.0075 -8.89311 -1.83417 22.763 1.08693 5.44307 -3.00639 8.0199 -91.9776 10.7336 -6.89776 -3.29758 -0.922464 -7.0361 -2.98975 -23.5287 -5.5885 -5.22069 -3.51603 -5.5885 -5.2207 94.8175 -18.0229 -100.622 45.8258 -8.45052 48.3344 -33.7383 23.6961 -108.31 -6.10959 0.112704 -8.01104 -85.0416 -22.0063 80.9207 -14.643 -15.5306 -39.2876 25.1664 -17.4125 -123.069 2.21155 -0.156921 -6.02678 30.1497 15.4602 -4.17265 -22.9601 14.6127 11.0339 
55.9956 96.4791 27.9653 76.5193 -64.0581 91.3985 -171.051 -19.5592 94.8072 -25.3852 16.3787 3.39504 59.3734 -0.763888 6.85728 15.5391 -0.832764 -8.79314 -174.27 36.3737 92.6764 -33.7015 -14.7657 -4.61082 70.7654 -7.17046 0.11601 26.5526 -0.016656 3.84418 -3.04413 7.91797 -92.0712 10.9313 -7.01821 -3.45719 -0.724382 -7.16346 -3.14388 -23.3301 -5.65558 -5.40898 -3.31743 -5.65558 -5.40898 94.8327 -16.9043 -101.004 46.4924 -7.48492 50.4966 -34.4303 24.3641 -108.943 -6.91295 0.118061 -7.73742 -84.513 -20.8769 81.7948 -13.4137 -12.7209 -41.3929 24.8408 -17.5491 -122.014 2.28791 -0.118417 -5.05527 28.8439 16.048 -3.35912 -22.6014 14.7789 11.638 
